<?xml version="1.0" encoding="UTF-8"?>
<!DOCTYPE svg PUBLIC "-//W3C//DTD SVG 1.1//EN" "http://www.w3.org/Graphics/SVG/1.1/DTD/svg11.dtd">
<svg xmlns="http://www.w3.org/2000/svg" version="1.1" width="80px" height="80px" style="shape-rendering:geometricPrecision; text-rendering:geometricPrecision; image-rendering:optimizeQuality; fill-rule:evenodd; clip-rule:evenodd" xmlns:xlink="http://www.w3.org/1999/xlink">
<g><path style="opacity:0.994" fill="#ff4078" d="M 30.5,-0.5 C 36.5,-0.5 42.5,-0.5 48.5,-0.5C 64.5,4.16667 74.8333,14.5 79.5,30.5C 79.5,36.5 79.5,42.5 79.5,48.5C 74.8333,64.5 64.5,74.8333 48.5,79.5C 42.5,79.5 36.5,79.5 30.5,79.5C 14.5,74.8333 4.16667,64.5 -0.5,48.5C -0.5,42.5 -0.5,36.5 -0.5,30.5C 4.16667,14.5 14.5,4.16667 30.5,-0.5 Z"/></g>
<g><path style="opacity:1" fill="#fff9fb" d="M 24.5,19.5 C 31.9078,19.4083 35.4078,23.0749 35,30.5C 39.1667,34.6667 43.3333,38.8333 47.5,43C 55.2981,43.2817 58.2981,47.1151 56.5,54.5C 54.6841,53.1851 53.0175,51.6851 51.5,50C 49.6815,49.2172 48.3482,49.7172 47.5,51.5C 48.7787,54.1117 50.4453,56.4451 52.5,58.5C 48.4747,60.2989 45.308,59.2989 43,55.5C 42.6667,53.1667 42.3333,50.8333 42,48.5C 37.8333,44.3333 33.6667,40.1667 29.5,36C 21.7545,35.7638 18.7545,31.9304 20.5,24.5C 22.3159,25.8149 23.9825,27.3149 25.5,29C 26.448,29.4828 27.448,29.6495 28.5,29.5C 28.6602,27.8008 28.4935,26.1341 28,24.5C 26.1978,23.2107 25.0312,21.5441 24.5,19.5 Z"/></g>
<g><path style="opacity:1" fill="#fff6f8" d="M 55.5,19.5 C 58.0014,19.8256 59.1681,21.1589 59,23.5C 54.3874,28.1126 49.7208,32.7792 45,37.5C 43.8333,36.3333 42.6667,35.1667 41.5,34C 46.425,29.2447 51.0917,24.4114 55.5,19.5 Z"/></g>
<g><path style="opacity:1" fill="#fff6f8" d="M 29.5,41.5 C 35.1273,41.9376 37.4607,44.7709 36.5,50C 35.2068,50.49 33.8734,50.6567 32.5,50.5C 31.8315,55.9994 28.6648,58.9994 23,59.5C 19.7948,58.2018 18.7948,55.8684 20,52.5C 21.6946,49.3055 24.1946,46.9722 27.5,45.5C 28.3624,44.2342 29.0291,42.9008 29.5,41.5 Z"/></g>
</svg>
