<?xml version="1.0" encoding="UTF-8"?>
<!DOCTYPE svg PUBLIC "-//W3C//DTD SVG 1.1//EN" "http://www.w3.org/Graphics/SVG/1.1/DTD/svg11.dtd">
<svg xmlns="http://www.w3.org/2000/svg" version="1.1" width="80px" height="80px" style="shape-rendering:geometricPrecision; text-rendering:geometricPrecision; image-rendering:optimizeQuality; fill-rule:evenodd; clip-rule:evenodd" xmlns:xlink="http://www.w3.org/1999/xlink">
<g><path style="opacity:0.946" fill="#ff3f79" d="M 30.5,-0.5 C 36.5,-0.5 42.5,-0.5 48.5,-0.5C 64.5,4.16667 74.8333,14.5 79.5,30.5C 79.5,36.5 79.5,42.5 79.5,48.5C 74.8333,64.5 64.5,74.8333 48.5,79.5C 42.5,79.5 36.5,79.5 30.5,79.5C 14.5,74.8333 4.16667,64.5 -0.5,48.5C -0.5,42.5 -0.5,36.5 -0.5,30.5C 4.16667,14.5 14.5,4.16667 30.5,-0.5 Z M 37.5,3.5 C 60.2152,4.88163 72.8819,16.8816 75.5,39.5C 73.174,61.1593 61.174,73.1593 39.5,75.5C 17.8407,73.174 5.84071,61.174 3.5,39.5C 5.677,18.6605 17.0103,6.66049 37.5,3.5 Z"/></g>
<g><path style="opacity:0.921" fill="#ff3f79" d="M 35.5,27.5 C 40.4194,30.7483 44.7528,34.7483 48.5,39.5C 44.8333,43.8333 40.8333,47.8333 36.5,51.5C 35.1667,50.8333 34.1667,49.8333 33.5,48.5C 36.1667,45.5 38.8333,42.5 41.5,39.5C 39.1833,36.6826 36.6833,34.0159 34,31.5C 33.7003,29.9343 34.2003,28.601 35.5,27.5 Z"/></g>
</svg>
