<?xml version="1.0" encoding="UTF-8"?>
<!DOCTYPE svg PUBLIC "-//W3C//DTD SVG 1.1//EN" "http://www.w3.org/Graphics/SVG/1.1/DTD/svg11.dtd">
<svg xmlns="http://www.w3.org/2000/svg" version="1.1" width="80px" height="80px" style="shape-rendering:geometricPrecision; text-rendering:geometricPrecision; image-rendering:optimizeQuality; fill-rule:evenodd; clip-rule:evenodd" xmlns:xlink="http://www.w3.org/1999/xlink">
<g><path style="opacity:0.994" fill="#ff3e78" d="M 30.5,-0.5 C 36.5,-0.5 42.5,-0.5 48.5,-0.5C 64.5,4.16667 74.8333,14.5 79.5,30.5C 79.5,36.5 79.5,42.5 79.5,48.5C 74.8333,64.5 64.5,74.8333 48.5,79.5C 42.5,79.5 36.5,79.5 30.5,79.5C 14.5,74.8333 4.16667,64.5 -0.5,48.5C -0.5,42.5 -0.5,36.5 -0.5,30.5C 4.16667,14.5 14.5,4.16667 30.5,-0.5 Z"/></g>
<g><path style="opacity:1" fill="#fffdfd" d="M 24.5,19.5 C 34.7491,19.1806 44.9158,19.5139 55,20.5C 55.8326,32.5139 55.6659,44.5139 54.5,56.5C 53.2807,57.2634 52.2807,58.2634 51.5,59.5C 48.8333,55.5 46.1667,55.5 43.5,59.5C 40.8333,55.5 38.1667,55.5 35.5,59.5C 32.8333,55.5 30.1667,55.5 27.5,59.5C 26.7193,58.2634 25.7193,57.2634 24.5,56.5C 23.1886,44.1045 23.1886,31.7712 24.5,19.5 Z"/></g>
<g><path style="opacity:1" fill="#ff4d80" d="M 33.5,27.5 C 43.5363,26.1342 47.5363,30.3008 45.5,40C 47.5233,42.1749 48.8566,44.6749 49.5,47.5C 46.6749,46.8566 44.1749,45.5233 42,43.5C 32.0988,45.5992 28.0988,41.5992 30,31.5C 31.3756,30.2949 32.5423,28.9616 33.5,27.5 Z"/></g>
<g><path style="opacity:1" fill="#fff6f8" d="M 34.5,31.5 C 42.5432,31.0028 44.2099,33.8361 39.5,40C 37.2992,40.8249 35.4659,40.3249 34,38.5C 33.2967,36.0709 33.4634,33.7375 34.5,31.5 Z"/></g>
</svg>
