<?xml version="1.0" encoding="UTF-8"?>
<!DOCTYPE svg PUBLIC "-//W3C//DTD SVG 1.1//EN" "http://www.w3.org/Graphics/SVG/1.1/DTD/svg11.dtd">
<svg xmlns="http://www.w3.org/2000/svg" version="1.1" width="48px" height="48px" style="shape-rendering:geometricPrecision; text-rendering:geometricPrecision; image-rendering:optimizeQuality; fill-rule:evenodd; clip-rule:evenodd" xmlns:xlink="http://www.w3.org/1999/xlink">
<g><path style="opacity:0.807" fill="#42f6d5" d="M 16.5,13.5 C 19.0751,14.7284 21.4084,16.3951 23.5,18.5C 25.5,16.8333 27.5,15.1667 29.5,13.5C 30.5,13.8333 31.1667,14.5 31.5,15.5C 29.1667,18.5 26.5,21.1667 23.5,23.5C 20.8494,21.3501 18.3494,19.0168 16,16.5C 15.5304,15.4232 15.6971,14.4232 16.5,13.5 Z"/></g>
<g><path style="opacity:0.807" fill="#42f6d5" d="M 16.5,25.5 C 19.0751,26.7284 21.4084,28.3951 23.5,30.5C 25.5,28.8333 27.5,27.1667 29.5,25.5C 30.5,25.8333 31.1667,26.5 31.5,27.5C 29.1667,30.5 26.5,33.1667 23.5,35.5C 20.8494,33.3501 18.3494,31.0168 16,28.5C 15.5304,27.4232 15.6971,26.4232 16.5,25.5 Z"/></g>
</svg>
