<?xml version="1.0" encoding="UTF-8"?>
<!DOCTYPE svg PUBLIC "-//W3C//DTD SVG 1.1//EN" "http://www.w3.org/Graphics/SVG/1.1/DTD/svg11.dtd">
<svg xmlns="http://www.w3.org/2000/svg" version="1.1" width="80px" height="80px" style="shape-rendering:geometricPrecision; text-rendering:geometricPrecision; image-rendering:optimizeQuality; fill-rule:evenodd; clip-rule:evenodd" xmlns:xlink="http://www.w3.org/1999/xlink">
<g><path style="opacity:0.995" fill="#ff4179" d="M 30.5,-0.5 C 36.5,-0.5 42.5,-0.5 48.5,-0.5C 64.5,4.16667 74.8333,14.5 79.5,30.5C 79.5,36.5 79.5,42.5 79.5,48.5C 74.8333,64.5 64.5,74.8333 48.5,79.5C 42.5,79.5 36.5,79.5 30.5,79.5C 14.5,74.8333 4.16667,64.5 -0.5,48.5C -0.5,42.5 -0.5,36.5 -0.5,30.5C 4.16667,14.5 14.5,4.16667 30.5,-0.5 Z"/></g>
<g><path style="opacity:1" fill="#fffefe" d="M 24.5,23.5 C 29.7561,27.4146 34.7561,31.748 39.5,36.5C 43.9851,32.5154 48.3184,28.3487 52.5,24C 54.6667,23.5 55.5,24.3333 55,26.5C 50.6513,30.6816 46.4846,35.0149 42.5,39.5C 46.4846,43.9851 50.6513,48.3184 55,52.5C 55.5,54.6667 54.6667,55.5 52.5,55C 48.3184,50.6513 43.9851,46.4846 39.5,42.5C 35.0149,46.4846 30.6816,50.6513 26.5,55C 24.3333,55.5 23.5,54.6667 24,52.5C 28.3487,48.3184 32.5154,43.9851 36.5,39.5C 32.5154,35.0149 28.3487,30.6816 24,26.5C 23.5304,25.4232 23.6971,24.4232 24.5,23.5 Z"/></g>
</svg>
