<?xml version="1.0" encoding="UTF-8"?>
<!DOCTYPE svg PUBLIC "-//W3C//DTD SVG 1.1//EN" "http://www.w3.org/Graphics/SVG/1.1/DTD/svg11.dtd">
<svg xmlns="http://www.w3.org/2000/svg" version="1.1" width="80px" height="80px" style="shape-rendering:geometricPrecision; text-rendering:geometricPrecision; image-rendering:optimizeQuality; fill-rule:evenodd; clip-rule:evenodd" xmlns:xlink="http://www.w3.org/1999/xlink">
<g><path style="opacity:0.995" fill="#ff3e78" d="M 30.5,-0.5 C 36.5,-0.5 42.5,-0.5 48.5,-0.5C 64.5,4.16667 74.8333,14.5 79.5,30.5C 79.5,36.5 79.5,42.5 79.5,48.5C 74.8333,64.5 64.5,74.8333 48.5,79.5C 42.5,79.5 36.5,79.5 30.5,79.5C 14.5,74.8333 4.16667,64.5 -0.5,48.5C -0.5,42.5 -0.5,36.5 -0.5,30.5C 4.16667,14.5 14.5,4.16667 30.5,-0.5 Z"/></g>
<g><path style="opacity:1" fill="#fff8fa" d="M 47.5,21.5 C 50.1873,21.3359 52.854,21.5026 55.5,22C 56.9436,23.126 57.6102,24.626 57.5,26.5C 54.7065,42.1286 45.7065,52.2953 30.5,57C 22.0017,58.4944 19.3351,55.1611 22.5,47C 25.7024,45.5167 29.0357,45.1834 32.5,46C 33.7774,47.7858 35.444,48.9524 37.5,49.5C 43.1667,47.1667 47.1667,43.1667 49.5,37.5C 48.9524,35.444 47.7858,33.7774 46,32.5C 45.1122,28.5979 45.6122,24.9312 47.5,21.5 Z"/></g>
</svg>
