<?xml version="1.0" encoding="UTF-8"?>
<!DOCTYPE svg PUBLIC "-//W3C//DTD SVG 1.1//EN" "http://www.w3.org/Graphics/SVG/1.1/DTD/svg11.dtd">
<svg xmlns="http://www.w3.org/2000/svg" version="1.1" width="80px" height="80px" style="shape-rendering:geometricPrecision; text-rendering:geometricPrecision; image-rendering:optimizeQuality; fill-rule:evenodd; clip-rule:evenodd" xmlns:xlink="http://www.w3.org/1999/xlink">
<g><path style="opacity:0.994" fill="#ff3e78" d="M 30.5,-0.5 C 36.5,-0.5 42.5,-0.5 48.5,-0.5C 64.5,4.16667 74.8333,14.5 79.5,30.5C 79.5,36.5 79.5,42.5 79.5,48.5C 74.8333,64.5 64.5,74.8333 48.5,79.5C 42.5,79.5 36.5,79.5 30.5,79.5C 14.5,74.8333 4.16667,64.5 -0.5,48.5C -0.5,42.5 -0.5,36.5 -0.5,30.5C 4.16667,14.5 14.5,4.16667 30.5,-0.5 Z"/></g>
<g><path style="opacity:1" fill="#fffdfe" d="M 21.5,21.5 C 33.5046,21.3335 45.5046,21.5001 57.5,22C 58,22.5 58.5,23 59,23.5C 59.6667,32.1667 59.6667,40.8333 59,49.5C 58.5,50 58,50.5 57.5,51C 47.5,51.3333 37.5,51.6667 27.5,52C 24.8824,54.7395 22.3824,57.5728 20,60.5C 19.3333,48.1667 19.3333,35.8333 20,23.5C 20.7172,22.9558 21.2172,22.2891 21.5,21.5 Z"/></g>
<g><path style="opacity:1" fill="#ff3f79" d="M 28.5,29.5 C 35.8409,29.3337 43.1742,29.5003 50.5,30C 51.8333,31 51.8333,32 50.5,33C 43.1667,33.6667 35.8333,33.6667 28.5,33C 27.3157,31.8545 27.3157,30.6879 28.5,29.5 Z"/></g>
<g><path style="opacity:1" fill="#ff4079" d="M 28.5,39.5 C 33.1785,39.3342 37.8452,39.5008 42.5,40C 43.8333,41 43.8333,42 42.5,43C 37.8333,43.6667 33.1667,43.6667 28.5,43C 27.3157,41.8545 27.3157,40.6879 28.5,39.5 Z"/></g>
</svg>
