<?xml version="1.0" encoding="UTF-8"?>
<!DOCTYPE svg PUBLIC "-//W3C//DTD SVG 1.1//EN" "http://www.w3.org/Graphics/SVG/1.1/DTD/svg11.dtd">
<svg xmlns="http://www.w3.org/2000/svg" version="1.1" width="195px" height="103px" style="shape-rendering:geometricPrecision; text-rendering:geometricPrecision; image-rendering:optimizeQuality; fill-rule:evenodd; clip-rule:evenodd" xmlns:xlink="http://www.w3.org/1999/xlink">
<g><path style="opacity:0.279" fill="#7d909b" d="M 71.5,-0.5 C 97.8333,-0.5 124.167,-0.5 150.5,-0.5C 173.305,3.30435 187.972,16.3043 194.5,38.5C 194.5,42.5 194.5,46.5 194.5,50.5C 189.833,50.5 185.167,50.5 180.5,50.5C 180.047,32.2084 171.047,20.3751 153.5,15C 126.167,14.6667 98.8333,14.3333 71.5,14C 68.8635,9.1674 68.8635,4.33407 71.5,-0.5 Z"/></g>
<g><path style="opacity:1" fill="#6a7a83" d="M 71.5,1.5 C 99.1687,1.33336 126.835,1.50002 154.5,2C 178.961,8.42213 191.961,24.2555 193.5,49.5C 189.5,49.5 185.5,49.5 181.5,49.5C 180.892,29.1353 170.558,16.9686 150.5,13C 124.169,12.5 97.8354,12.3334 71.5,12.5C 71.5,8.83333 71.5,5.16667 71.5,1.5 Z"/></g>
<g><path style="opacity:0.797" fill="#7f929d" d="M 81.5,20.5 C 90.5062,20.3336 99.5062,20.5002 108.5,21C 117.334,24.1789 122.001,30.5122 122.5,40C 120.862,55.4515 112.195,62.2849 96.5,60.5C 96.5,67.1667 96.5,73.8333 96.5,80.5C 91.5,80.5 86.5,80.5 81.5,80.5C 81.5,60.5 81.5,40.5 81.5,20.5 Z M 96.5,35.5 C 105.676,34.1583 108.676,37.6583 105.5,46C 102.649,47.2886 99.6492,47.7886 96.5,47.5C 96.5,43.5 96.5,39.5 96.5,35.5 Z"/></g>
<g><path style="opacity:1" fill="#6a7a83" d="M 82.5,21.5 C 91.5679,21.1187 100.568,21.6187 109.5,23C 119.354,27.8828 122.854,35.7161 120,46.5C 118.594,51.5732 115.428,55.0732 110.5,57C 105.58,58.2503 100.58,58.7503 95.5,58.5C 95.5,65.1667 95.5,71.8333 95.5,78.5C 91.1667,78.5 86.8333,78.5 82.5,78.5C 82.5,59.5 82.5,40.5 82.5,21.5 Z M 96.5,35.5 C 96.5,39.5 96.5,43.5 96.5,47.5C 99.6492,47.7886 102.649,47.2886 105.5,46C 108.676,37.6583 105.676,34.1583 96.5,35.5 Z"/></g>
<g><path style="opacity:1" fill="#768892" d="M 95.5,33.5 C 95.5,38.5 95.5,43.5 95.5,48.5C 97.8333,48.5 100.167,48.5 102.5,48.5C 100.052,49.4731 97.3854,49.8064 94.5,49.5C 94.1786,43.9738 94.5119,38.6405 95.5,33.5 Z"/></g>
<g><path style="opacity:0.421" fill="#7e919c" d="M 95.5,33.5 C 107.628,32.7523 110.961,37.5856 105.5,48C 104.552,48.4828 103.552,48.6495 102.5,48.5C 100.167,48.5 97.8333,48.5 95.5,48.5C 95.5,43.5 95.5,38.5 95.5,33.5 Z M 96.5,35.5 C 96.5,39.5 96.5,43.5 96.5,47.5C 99.6492,47.7886 102.649,47.2886 105.5,46C 108.676,37.6583 105.676,34.1583 96.5,35.5 Z"/></g>
<g><path style="opacity:0.655" fill="#7e919d" d="M 46.5,20.5 C 52.1764,20.3339 57.8431,20.5006 63.5,21C 66.0001,21.3747 68.3334,22.2081 70.5,23.5C 71.8333,29.5 71.8333,35.5 70.5,41.5C 61.3077,31.3279 51.8077,30.9946 42,40.5C 35.9801,52.3803 39.1467,60.8803 51.5,66C 59.5995,67.6339 66.0995,65.1339 71,58.5C 71.8087,64.7489 71.642,70.9156 70.5,77C 52.1158,83.7581 37.2825,79.2581 26,63.5C 19.4827,42.5406 26.316,28.2072 46.5,20.5 Z"/></g>
<g><path style="opacity:1" fill="#6a7a83" d="M 68.5,63.5 C 69.4834,67.2984 69.8168,71.2984 69.5,75.5C 50.3238,82.7204 35.8238,77.387 26,59.5C 21.9248,40.4776 29.0915,27.9776 47.5,22C 54.6491,21.0884 61.6491,21.7551 68.5,24C 69.7595,26.2125 70.4262,28.7125 70.5,31.5C 70.3333,33.8333 70.1667,36.1667 70,38.5C 64.2887,32.8829 57.4553,31.0496 49.5,33C 36.6304,40.1868 34.1304,50.0202 42,62.5C 50.6483,68.7434 59.4817,69.0767 68.5,63.5 Z"/></g>
<g><path style="opacity:0.563" fill="#7e909c" d="M 140.5,20.5 C 150.296,18.6017 158.63,21.1017 165.5,28C 163.403,31.7677 160.903,35.2677 158,38.5C 154.35,33.0556 149.684,31.7222 144,34.5C 143.175,36.7008 143.675,38.5341 145.5,40C 152.309,41.9873 158.475,45.154 164,49.5C 171.167,67.3546 165.167,77.6879 146,80.5C 136.901,79.5376 129.734,75.3709 124.5,68C 127.682,64.6507 131.015,61.484 134.5,58.5C 137.345,64.4223 142.012,66.9223 148.5,66C 153.15,63.4078 153.483,60.4078 149.5,57C 144.084,54.8611 138.751,52.5278 133.5,50C 128.755,44.7307 127.255,38.564 129,31.5C 131.437,26.2262 135.271,22.5595 140.5,20.5 Z"/></g>
<g><path style="opacity:1" fill="#6a7a83" d="M 141.5,21.5 C 146.58,21.2497 151.58,21.7497 156.5,23C 165.414,26.3763 165.748,30.543 157.5,35.5C 153.431,31.3708 148.764,30.5375 143.5,33C 140.966,35.5867 140.966,38.2533 143.5,41C 150.694,42.8369 157.194,46.0036 163,50.5C 168.841,63.3073 165.341,72.4739 152.5,78C 141.621,80.1554 132.954,76.822 126.5,68C 128.716,65.4465 131.216,63.2799 134,61.5C 138.14,67.1144 143.64,68.9477 150.5,67C 154.057,63.8185 154.391,60.3185 151.5,56.5C 146.541,54.236 141.541,52.0694 136.5,50C 127.656,42.0637 127.322,33.7303 135.5,25C 137.727,24.059 139.727,22.8923 141.5,21.5 Z"/></g>
<g><path style="opacity:1" fill="#71828c" d="M 69.5,75.5 C 69.8168,71.2984 69.4834,67.2984 68.5,63.5C 68.7828,62.7109 69.2828,62.0442 70,61.5C 70.8151,66.3522 70.6484,71.0189 69.5,75.5 Z"/></g>
<g><path style="opacity:0.563" fill="#7e919d" d="M 134.5,101.5 C 134.815,97.6286 134.482,93.9619 133.5,90.5C 103.336,89.6676 73.0028,89.1676 42.5,89C 23.956,82.9445 14.2893,70.1111 13.5,50.5C 9.5,50.5 5.5,50.5 1.5,50.5C 2.01248,72.4785 12.0125,88.3118 31.5,98C 35.9599,99.992 40.6265,101.159 45.5,101.5C 45.5,101.833 45.5,102.167 45.5,102.5C 43.5,102.5 41.5,102.5 39.5,102.5C 13.9486,94.2565 0.948585,76.5899 0.5,49.5C 5.16667,49.5 9.83333,49.5 14.5,49.5C 15.6588,70.8221 26.6588,83.6554 47.5,88C 76.5,88.3333 105.5,88.6667 134.5,89C 135.822,93.2669 135.822,97.4336 134.5,101.5 Z"/></g>
<g><path style="opacity:1" fill="#6a7a83" d="M 133.5,90.5 C 133.5,94.1667 133.5,97.8333 133.5,101.5C 104.167,101.5 74.8333,101.5 45.5,101.5C 40.6265,101.159 35.9599,99.992 31.5,98C 12.0125,88.3118 2.01248,72.4785 1.5,50.5C 5.5,50.5 9.5,50.5 13.5,50.5C 14.2893,70.1111 23.956,82.9445 42.5,89C 73.0028,89.1676 103.336,89.6676 133.5,90.5 Z"/></g>
<g><path style="opacity:1" fill="#798c96" d="M 133.5,90.5 C 134.482,93.9619 134.815,97.6286 134.5,101.5C 134.5,101.833 134.5,102.167 134.5,102.5C 104.833,102.5 75.1667,102.5 45.5,102.5C 45.5,102.167 45.5,101.833 45.5,101.5C 74.8333,101.5 104.167,101.5 133.5,101.5C 133.5,97.8333 133.5,94.1667 133.5,90.5 Z"/></g>
</svg>
