<?xml version="1.0" encoding="UTF-8"?>
<!DOCTYPE svg PUBLIC "-//W3C//DTD SVG 1.1//EN" "http://www.w3.org/Graphics/SVG/1.1/DTD/svg11.dtd">
<svg xmlns="http://www.w3.org/2000/svg" version="1.1" width="80px" height="80px" style="shape-rendering:geometricPrecision; text-rendering:geometricPrecision; image-rendering:optimizeQuality; fill-rule:evenodd; clip-rule:evenodd" xmlns:xlink="http://www.w3.org/1999/xlink">
<g><path style="opacity:0.995" fill="#ff3e78" d="M 30.5,-0.5 C 36.5,-0.5 42.5,-0.5 48.5,-0.5C 64.5,4.16667 74.8333,14.5 79.5,30.5C 79.5,36.5 79.5,42.5 79.5,48.5C 74.8333,64.5 64.5,74.8333 48.5,79.5C 42.5,79.5 36.5,79.5 30.5,79.5C 14.5,74.8333 4.16667,64.5 -0.5,48.5C -0.5,42.5 -0.5,36.5 -0.5,30.5C 4.16667,14.5 14.5,4.16667 30.5,-0.5 Z"/></g>
<g><path style="opacity:1" fill="#fffdfe" d="M 22.5,23.5 C 33.8382,23.3335 45.1716,23.5001 56.5,24C 57.8333,25 57.8333,26 56.5,27C 45.1667,27.6667 33.8333,27.6667 22.5,27C 21.3157,25.8545 21.3157,24.6879 22.5,23.5 Z"/></g>
<g><path style="opacity:1" fill="#fffdfd" d="M 22.5,37.5 C 28.5092,37.3338 34.5092,37.5005 40.5,38C 41.8333,39 41.8333,40 40.5,41C 34.5,41.6667 28.5,41.6667 22.5,41C 21.3157,39.8545 21.3157,38.6879 22.5,37.5 Z"/></g>
<g><path style="opacity:1" fill="#fffdfe" d="M 22.5,51.5 C 31.1731,51.3336 39.8397,51.5002 48.5,52C 49.8333,53 49.8333,54 48.5,55C 39.8333,55.6667 31.1667,55.6667 22.5,55C 21.3157,53.8545 21.3157,52.6879 22.5,51.5 Z"/></g>
</svg>
